# xmcd
#
# Track frame offsets:
# 150
# 17192
# 31841
# 49500
# 62417
# 79142
# 91027
# 104295
# 140253
# 159229
# 173489
# 186709
# 202805
# 215347
# 232619
# 253327
# 269312
# 284891
#
# Disc length: 3974 seconds
#
#
# Revision: 0
# Processed by: cddbd v1.5.2PL0 Copyright (c) Steve Scherf et al.
# Submitted via: FreeRIP 2.96 
#
DISCID=ed0f8412
DTITLE=Amigos da Concertina - Amigos da Concertina
DYEAR=2009
DGENRE=Country
TTITLE0=Cana Verde aos Mestres
TTITLE1=Homenagem a Outeiro
TTITLE2=Se Te Sentes Sozinha
TTITLE3=De Outeiro a Montalegre
TTITLE4=Cana Verde do Guga
TTITLE5=Valsa da Suzana
TTITLE6=Chula de Arentim
TTITLE7=Pout-Pourri de Marchas
TTITLE8=Vira do Chico
TTITLE9=Cana Verde dos Tocadores
TTITLE10=Vira de Outeiro
TTITLE11=Malhão da Abadia
TTITLE12=Nossa Valsa
TTITLE13=Passo Double
TTITLE14=Vira da Praia
TTITLE15=Chula a Nossa Maneira
TTITLE16=Corridinho Flores da Minha Terra [CD do "Aldeias")
TTITLE17=Rusga de Godinhaços [CD do "Aldeias")
EXTD=Ano 2009 - M.P.A.
EXTT0=
EXTT1=
EXTT2=
EXTT3=
EXTT4=
EXTT5=
EXTT6=
EXTT7=
EXTT8=
EXTT9=
EXTT10=
EXTT11=
EXTT12=
EXTT13=
EXTT14=
EXTT15=
EXTT16=
EXTT17=
PLAYORDER=
